# Alias OBJ Model File
# Exported from SketchUp, (c) 2000-2012 Trimble Navigation Limited
# File units = meters

mtllib Crystal.mtl

g Mesh1 Component_25_1 Crystal_Bottle1 Glass Model

usemtl _13
v 2.93306 1.5474 -1.41432
vt -0.128779 0.180167
vn -0.247941 0.329793 -0.910913
v 2.92842 1.59254 -1.39672
vt -0.0548551 0.568412
v 2.9964 1.59254 -1.41522
vt -0.626989 0.568412
v 2.98348 1.5474 -1.42805
vt -0.553064 0.180167
f 1/1/1 2/2/1 3/3/1 4/4/1 

v 2.89597 1.5474 -1.45112
vt 0.136096 0.100774
vn 0.664903 0.329793 -0.67018
v 2.8784 1.59254 -1.44634
vt 0.21002 0.489019
vt -0.362113 0.489019
vt -0.288189 0.100774
f 5/5/2 6/6/2 2/7/2 1/8/2 

v 2.90929 1.5474 -1.50165
vt 0.477018 0.136728
vn 0.912844 0.329793 0.240733
v 2.89637 1.59254 -1.51447
vt 0.550942 0.524973
vt -0.0211915 0.524973
vt 0.0527326 0.136728
f 7/9/3 8/10/3 6/11/3 5/12/3 

v 2.95971 1.5474 -1.51537
vt 0.553064 0.252075
vn 0.247941 0.329793 0.910913
v 2.96435 1.59254 -1.53298
vt 0.626989 0.64032
vt 0.0548551 0.64032
vt 0.128779 0.252075
f 9/13/4 10/14/4 8/15/4 7/16/4 

v 2.9968 1.5474 -1.47857
vt 0.288189 0.331468
vn -0.664903 0.329793 0.67018
v 3.01437 1.59254 -1.48335
vt 0.362113 0.719714
vt -0.21002 0.719714
vt -0.136096 0.331468
f 11/17/5 12/18/5 10/19/5 9/20/5 

vt -0.0527326 0.295514
vn -0.912844 0.329793 -0.240733
vt 0.0211915 0.68376
vt -0.550942 0.68376
vt -0.477018 0.295514
f 4/21/6 3/22/6 12/23/6 11/24/6 

vt 0.0211915 0.467092
vn -0.966941 0 -0.255
v 2.9964 1.68644 -1.41522
vt 0.0211915 1.22962
v 3.01437 1.68644 -1.48335
vt -0.550942 1.22962
vt -0.550942 0.467092
f 3/25/7 13/26/7 14/27/7 12/28/7 

vt -0.0548551 0.467092
vn -0.262634 0 -0.964895
v 2.92842 1.68644 -1.39672
vt -0.0548551 1.22962
vt -0.626989 1.22962
vt -0.626989 0.467092
f 2/29/8 15/30/8 13/31/8 3/32/8 

vt 0.21002 0.467092
vn 0.704307 0 -0.709896
v 2.8784 1.68644 -1.44634
vt 0.21002 1.22962
vt -0.362113 1.22962
vt -0.362113 0.467092
f 6/33/9 16/34/9 15/35/9 2/36/9 

vt 0.550942 0.467092
vn 0.966941 0 0.255
v 2.89637 1.68644 -1.51447
vt 0.550942 1.22962
vt -0.0211915 1.22962
vt -0.0211915 0.467092
f 8/37/10 17/38/10 16/39/10 6/40/10 

vt 0.626989 0.467092
vn 0.262634 0 0.964895
v 2.96435 1.68644 -1.53298
vt 0.626989 1.22962
vt 0.0548551 1.22962
vt 0.0548551 0.467092
f 10/41/11 18/42/11 17/43/11 8/44/11 

vt 0.362113 0.467092
vn -0.704307 0 0.709896
vt 0.362113 1.22962
vt -0.21002 1.22962
vt -0.21002 0.467092
f 12/45/12 14/46/12 18/47/12 10/48/12 

vt 0.362113 0.41792
vn -0.545565 -0.632435 0.549895
v 2.98371 1.72015 -1.475
vt 0.233092 0.771273
v 2.95625 1.72015 -1.50225
vt -0.0809982 0.771273
vt -0.21002 0.41792
f 14/49/13 19/50/13 20/51/13 18/52/13 

vt 0.0211915 0.486868
vn -0.749006 -0.632435 -0.197526
v 2.97384 1.72015 -1.4376
vt -0.10783 0.840221
vt -0.42192 0.840221
vt -0.550942 0.486868
f 13/53/14 21/54/14 19/55/14 14/56/14 

vt -0.0548551 0.708067
vn -0.20344 -0.632435 -0.747421
v 2.93652 1.72015 -1.42744
vt -0.183877 1.06142
vt -0.497967 1.06142
vt -0.626989 0.708067
f 15/57/15 22/58/15 21/59/15 13/60/15 

vt 0.21002 0.860317
vn 0.545565 -0.632435 -0.549895
v 2.90906 1.72015 -1.45469
vt 0.0809982 1.21367
vt -0.233092 1.21367
vt -0.362113 0.860317
f 16/61/16 23/62/16 22/63/16 15/64/16 

vt 0.550942 0.791369
vn 0.749006 -0.632435 0.197526
v 2.91893 1.72015 -1.49209
vt 0.42192 1.14472
vt 0.10783 1.14472
vt -0.0211915 0.791369
f 17/65/17 24/66/17 23/67/17 16/68/17 

vt 0.626989 0.570171
vn 0.20344 -0.632435 0.747421
vt 0.497967 0.923523
vt 0.183877 0.923523
vt 0.0548551 0.570171
f 18/69/18 20/70/18 24/71/18 17/72/18 

vt 0.497967 1.45507
vn 0.261185 -0.104901 0.959572
v 2.95352 1.80814 -1.49189
vt 0.454456 2.17349
v 2.92653 1.80814 -1.48454
vt 0.227388 2.17349
vt 0.183877 1.45507
f 20/73/19 25/74/19 26/75/19 24/76/19 

vt 0.233092 1.42981
vn -0.700421 -0.104901 0.705979
v 2.97337 1.80814 -1.47219
vt 0.18958 2.14824
vt -0.037487 2.14824
vt -0.0809982 1.42981
f 19/77/20 27/78/20 25/79/20 20/80/20 

vt -0.10783 1.44125
vn -0.961606 -0.104901 -0.253593
v 2.96624 1.80814 -1.44515
vt -0.151341 2.15968
vt -0.378409 2.15968
vt -0.42192 1.44125
f 21/81/21 28/82/21 27/83/21 19/84/21 

vt -0.183877 1.47794
vn -0.261185 -0.104901 -0.959572
v 2.93925 1.80814 -1.43781
vt -0.227388 2.19637
vt -0.454456 2.19637
vt -0.497967 1.47794
f 22/85/22 29/86/22 28/87/22 21/88/22 

vt 0.0809982 1.50319
vn 0.700421 -0.104901 -0.705979
v 2.9194 1.80814 -1.4575
vt 0.037487 2.22162
vt -0.18958 2.22162
vt -0.233092 1.50319
f 23/89/23 30/90/23 29/91/23 22/92/23 

vt 0.42192 1.49175
vn 0.961606 -0.104901 0.253593
vt 0.378409 2.21018
vt 0.151341 2.21018
vt 0.10783 1.49175
f 24/93/24 26/94/24 30/95/24 23/96/24 

vt -0.139127 0.354656
vn 0 -1 -0
v 2.92328 1.80814 -1.45856
vt -0.112699 0.143662
vt -0.0812252 0.135095
f 26/97/25 31/98/25 30/99/25

v 2.92939 1.80814 -1.48171
vt -0.162283 0.331682
f 31/98/25 26/97/25 32/100/25

vt -0.358224 0.414292
f 32/100/25 26/97/25 25/101/25

v 2.95249 1.80814 -1.488
vt -0.349906 0.382751
f 32/100/25 25/101/25 33/102/25

v 2.96949 1.80814 -1.47114
vt -0.487944 0.2458
f 33/102/25 25/101/25 34/103/25

vt -0.519418 0.254367
f 34/103/25 25/101/25 27/104/25

vt -0.461516 0.0348058
f 28/105/25 34/103/25 27/104/25

v 2.96339 1.80814 -1.44798
vt -0.43836 0.0577794
f 28/105/25 35/106/25 34/103/25

v 2.94028 1.80814 -1.44169
vt -0.250737 0.00671049
f 28/105/25 36/107/25 35/106/25

vt -0.242419 -0.0248299
f 29/108/25 36/107/25 28/105/25

f 29/108/25 31/98/25 36/107/25

f 31/98/25 29/108/25 30/99/25

vt -0.173271 2.21779
vt 0.0211776 2.21779
v 2.92328 1.81633 -1.45856
vt 0.0211776 2.28431
v 2.94028 1.81633 -1.44169
vt -0.173271 2.28431
f 36/109/9 31/110/9 37/111/9 38/112/9 

vt -0.0211776 2.22458
vn -0.700414 0.104988 0.705973
v 2.91239 1.71558 -1.45559
vt -0.0669861 1.46885
v 2.9374 1.71558 -1.43078
vt 0.21908 1.46885
vt 0.173271 2.22458
f 31/113/26 39/114/26 40/115/26 36/116/26 

vt -0.362099 2.21313
vn -0.961597 0.104988 -0.25359
v 2.92138 1.71558 -1.48966
vt -0.407908 1.4574
vt -0.121842 1.4574
vt -0.167651 2.21313
f 32/117/27 41/118/27 39/119/27 31/120/27 

vt -0.438146 2.17641
vn -0.261183 0.104988 -0.959563
v 2.95537 1.71558 -1.49891
vt -0.483955 1.42068
vt -0.197889 1.42068
vt -0.243698 2.17641
f 33/121/28 42/122/28 41/123/28 32/124/28 

vt -0.173271 2.15114
vn 0.700414 0.104988 -0.705973
v 2.98038 1.71558 -1.4741
vt -0.21908 1.39541
vt 0.0669861 1.39541
vt 0.0211776 2.15114
f 34/125/29 43/126/29 42/127/29 33/128/29 

vt 0.167651 2.16258
vn 0.961597 0.104988 0.25359
v 2.97139 1.71558 -1.44003
vt 0.121842 1.40686
vt 0.407908 1.40686
vt 0.362099 2.16258
f 35/129/30 44/130/30 43/131/30 34/132/30 

vt 0.243698 2.1993
vn 0.261183 0.104988 0.959563
vt 0.197889 1.44358
vt 0.483955 1.44358
vt 0.438146 2.1993
f 36/133/31 40/134/31 44/135/31 35/136/31 

vt 0.197889 1.06033
vn 0.20541 0.623137 0.754657
v 2.9301 1.68446 -1.4031
vt 0.0816445 0.737216
v 2.99172 1.68446 -1.41987
vt 0.600199 0.737216
vt 0.483955 1.06033
f 40/137/32 45/138/32 46/139/32 44/140/32 

vt -0.0669861 1.21034
vn -0.550847 0.623137 0.555218
v 2.88477 1.68446 -1.44807
vt -0.183231 0.887228
vt 0.335324 0.887228
vt 0.21908 1.21034
f 39/141/33 47/142/33 45/143/33 40/144/33 

vt -0.407908 1.1424
vn -0.756257 0.623137 -0.199438
v 2.90105 1.68446 -1.50982
vt -0.524153 0.819294
vt -0.0055978 0.819294
vt -0.121842 1.1424
f 41/145/34 48/146/34 47/147/34 39/148/34 

vt -0.483955 0.924456
vn -0.20541 0.623137 -0.754657
v 2.96267 1.68446 -1.5266
vt -0.600199 0.601347
vt -0.0816445 0.601347
vt -0.197889 0.924456
f 42/149/35 49/150/35 48/151/35 41/152/35 

vt -0.21908 0.774444
vn 0.550847 0.623137 -0.555218
v 3.008 1.68446 -1.48162
vt -0.335324 0.451335
vt 0.183231 0.451335
vt 0.0669861 0.774444
f 43/153/36 50/154/36 49/155/36 42/156/36 

vt 0.121842 0.842379
vn 0.756257 0.623137 0.199438
vt 0.0055978 0.51927
vt 0.524153 0.51927
vt 0.407908 0.842379
f 44/157/37 46/158/37 50/159/37 43/160/37 

vt 0.0055978 1.21354
v 2.99172 1.59254 -1.41987
vt 0.0055978 0.467092
v 3.008 1.59254 -1.48162
vt 0.524153 0.467092
vt 0.524153 1.21354
f 46/161/10 51/162/10 52/163/10 50/164/10 

vt 0.0816445 1.21354
v 2.9301 1.59254 -1.4031
vt 0.0816445 0.467092
vt 0.600199 0.467092
vt 0.600199 1.21354
f 45/165/11 53/166/11 51/167/11 46/168/11 

vt -0.183231 1.21354
v 2.88477 1.59254 -1.44807
vt -0.183231 0.467092
vt 0.335324 0.467092
vt 0.335324 1.21354
f 47/169/12 54/170/12 53/171/12 45/172/12 

vt -0.524153 1.21354
v 2.90105 1.59254 -1.50982
vt -0.524153 0.467092
vt -0.0055978 0.467092
vt -0.0055978 1.21354
f 48/173/7 55/174/7 54/175/7 47/176/7 

vt -0.600199 1.21354
v 2.96267 1.59254 -1.5266
vt -0.600199 0.467092
vt -0.0816445 0.467092
vt -0.0816445 1.21354
f 49/177/8 56/178/8 55/179/8 48/180/8 

vt -0.335324 1.21354
vt -0.335324 0.467092
vt 0.183231 0.467092
vt 0.183231 1.21354
f 50/181/9 52/182/9 56/183/9 49/184/9 

vt -0.335324 0.704411
vn 0.664903 -0.329793 -0.67018
v 2.99044 1.5474 -1.47684
vt -0.2614 0.316166
v 2.95803 1.5474 -1.50899
vt 0.109306 0.316166
vt 0.183231 0.704411
f 52/185/38 57/186/38 58/187/38 56/188/38 

vt 0.0055978 0.668457
vn 0.912844 -0.329793 0.240733
v 2.97879 1.5474 -1.43269
vt 0.079522 0.280212
vt 0.450228 0.280212
vt 0.524153 0.668457
f 51/189/39 59/190/39 57/191/39 52/192/39 

vt 0.0816445 0.55311
vn 0.247941 -0.329793 0.910913
v 2.93474 1.5474 -1.4207
vt 0.155569 0.164865
vt 0.526275 0.164865
vt 0.600199 0.55311
f 53/193/40 60/194/40 59/195/40 51/196/40 

vt -0.183231 0.473717
vn -0.664903 -0.329793 0.67018
v 2.90234 1.5474 -1.45286
vt -0.109306 0.0854713
vt 0.2614 0.0854713
vt 0.335324 0.473717
f 54/197/41 61/198/41 60/199/41 53/200/41 

vt -0.524153 0.509671
vn -0.912844 -0.329793 -0.240733
v 2.91398 1.5474 -1.497
vt -0.450228 0.121425
vt -0.079522 0.121425
vt -0.0055978 0.509671
f 55/201/42 62/202/42 61/203/42 54/204/42 

vt -0.600199 0.625018
vn -0.247941 -0.329793 -0.910913
vt -0.526275 0.236773
vt -0.155569 0.236773
vt -0.0816445 0.625018
f 56/205/43 58/206/43 62/207/43 55/208/43 

vt -0.205792 -0.16372
vt 0.0573714 0.0973706
vt -0.0371586 0.455822
vt -0.394851 0.553182
vt -0.658014 0.292091
vt -0.563484 -0.0663601
f 60/209/25 61/210/25 62/211/25 58/212/25 57/213/25 59/214/25 

vt -0.438146 2.21779
vt -0.243698 2.21779
vt -0.243698 2.28431
v 2.96339 1.81633 -1.44798
vt -0.438146 2.28431
f 35/215/8 36/216/8 38/217/8 63/218/8 

v 2.96949 1.81633 -1.47114
v 2.92939 1.81633 -1.48171
v 2.95249 1.81633 -1.488
f 64/103/25 63/106/25 38/107/25 37/98/25 65/100/25 66/102/25 

vt -0.362099 2.21779
vt -0.167651 2.21779
vt -0.167651 2.28431
vt -0.362099 2.28431
f 34/219/7 35/220/7 63/221/7 64/222/7 

vt -0.0211776 2.21779
vt 0.173271 2.21779
vt 0.173271 2.28431
vt -0.0211776 2.28431
f 33/223/12 34/224/12 64/225/12 66/226/12 

vt 0.243698 2.21779
vt 0.438146 2.21779
vt 0.438146 2.28431
vt 0.243698 2.28431
f 32/227/11 33/228/11 66/229/11 65/230/11 

vt 0.167651 2.21779
vt 0.362099 2.21779
vt 0.362099 2.28431
vt 0.167651 2.28431
f 31/231/10 32/232/10 65/233/10 37/234/10 

g Mesh2 Glass1 Glass Model

usemtl Metal_Seamed
v 1.02768 1.45315 -5.42833
vt -3.59152e-31 -5.12955e-31
vn -2.27458e-16 -3.24864e-16 1
v 2.6146 1.45315 -5.42833
vt 3.47094 -2.56477e-31
v 2.6146 2.56425 -5.42833
vt 3.47094 2.43022
v 1.02768 2.56425 -5.42833
vt 0 2.43022
f 67/235/44 68/236/44 69/237/44 70/238/44 

g Mesh3 Glass Model

usemtl Metal_Rough
v 3.1875 2.66189 -2.55161
vt 23.5107 9.78019
vn 1 0 -0
v 3.1875 0.677853 -2.55161
vt 23.5107 0.0162102
v 3.1875 0.677853 -2.90981
vt 25.2735 0.0162102
v 3.1875 2.66189 -2.90981
vt 25.2735 9.78019
f 71/239/45 72/240/45 73/241/45 74/242/45 

g Mesh4 Glass Model

v 3.1875 2.66519 -3.48769
vt 28.1174 9.7964
vn 1 1.17863e-15 6.3979e-15
v 3.1875 2.66519 -3.12098
vt 26.3127 9.7964
v 3.1875 0.674559 -3.12098
vt 26.3127 -1.60865e-14
v 3.1875 0.674559 -3.48769
vt 28.1174 -1.60865e-14
f 75/243/46 76/244/46 77/245/46 78/246/46 

g Mesh5 Glass Model

usemtl Metal_Seamed
v 0.414716 3.62458 2.09332
vt 4.57857 7.92778
vn -1 0 -0
v 0.414716 3.62458 0.586872
vt 1.28362 7.92778
v 0.414716 3.17987 0.586872
vt 1.28362 6.9551
v 0.414716 3.17987 2.09332
vt 4.57857 6.9551
f 79/247/47 80/248/47 81/249/47 82/250/47 

g Mesh6 Glass Model

usemtl Metal_Rough
v 0.414122 2.56425 -2.46197
vt -23.0696 9.29968
vn -1 1.78675e-15 -1.78675e-15
v 0.414122 2.56425 -3.57307
vt -28.5376 9.29968
v 0.414122 1.45315 -3.57307
vt -28.5376 3.83167
v 0.414122 1.45315 -2.46197
vt -23.0696 3.83167
f 83/251/48 84/252/48 85/253/48 86/254/48 

g Mesh7 Glass Model

v 0.414122 2.58692 2.22577
vt -4.65927e-30 9.41122
vn -1 8.59146e-16 -2.99764e-16
v 0.414122 2.58692 1.47318
vt -3.70366 9.41122
v 0.414122 2.32434 1.47318
vt -3.70366 8.11898
v 0.414122 2.32434 2.22577
vt -3.99366e-30 8.11898
f 87/255/49 88/256/49 89/257/49 90/258/49 

g Mesh8 Glass Model

usemtl Metal_Seamed
v 3.21679 3.17987 2.09332
vt -4.57857 6.9551
v 3.21679 3.17987 0.586872
vt -1.28362 6.9551
v 3.21679 3.62458 0.586872
vt -1.28362 7.92778
v 3.21679 3.62458 2.09332
vt -4.57857 7.92778
f 91/259/45 92/260/45 93/261/45 94/262/45 

g Mesh9 Glass Model

usemtl Metal_Rough
v 3.2162 1.61759 0.701314
vt 7.50222 4.64091
vn 1 -6.04481e-16 -7.4743e-17
v 3.2162 1.61759 -2.03869
vt 20.9865 4.64091
v 3.2162 2.01987 -2.03869
vt 20.9865 6.62064
v 3.2162 2.01987 0.701314
vt 7.50222 6.62064
f 95/263/50 96/264/50 97/265/50 98/266/50 

