# Alias OBJ Model File
# Exported from SketchUp, (c) 2000-2012 Trimble Navigation Limited
# File units = meters

mtllib Crystal.mtl

g Mesh1 cristal_2 cristales Model

usemtl _Metal_Rough_1
v 0.151046 2.523 0.563867
vt 6.93898 11.2205
vn 0.876391 9.72723e-18 0.481601
v -0.528011 2.523 1.79958
vt -1.77636e-15 11.2205
v -0.528011 0.243 1.79958
vt -1.77636e-15 3.0824e-32
v 0.151046 0.243 0.563867
vt 6.93898 1.81977e-32
f 1/1/1 2/2/1 3/3/1 4/4/1 

g Mesh2 cristal_4 cristales Model

v -2.52995 2.525 2.61869
vt 0 11.2303
vn -0.481601 1.074e-19 0.876391
v -3.36428 2.525 2.16021
vt -4.68504 11.2303
v -3.36428 0.243 2.16021
vt -4.68504 -3.66922e-48
v -2.52995 0.243 2.61869
vt 0 0
f 5/5/2 6/6/2 7/7/2 8/8/2 

g Mesh3 cristal_3 cristales Model

v -1.46076 2.525 3.20624
v -2.29508 2.525 2.74776
v -2.29508 0.243 2.74776
vt -4.68504 -9.68145e-47
v -1.46076 0.243 3.20624
f 9/5/2 10/6/2 11/9/2 12/8/2 

g Mesh4 cristal_1 cristales Model

v -0.556907 2.523 1.85216
vn 0.876391 1.70763e-17 0.481601
v -1.23596 2.523 3.08787
vt 0 11.2205
v -1.23596 0.243 3.08787
v -0.556907 0.243 1.85216
vt 6.93898 6.74378e-32
f 13/1/3 14/10/3 15/8/3 16/11/3 

g Mesh5 cristal_5 cristales Model

v 2.53208 2.525 -3.76901
vt 5.17717 6.80118
vn 0.876391 -1.88405e-19 0.481601
v 2.02544 2.525 -2.84705
vt -9.74243e-29 6.80118
v 2.02544 1.143 -2.84705
vt -9.74243e-29 -5.55935e-49
v 2.53208 1.143 -3.76901
vt 5.17717 -5.89965e-49
f 17/12/4 18/13/4 19/14/4 20/15/4 

g Mesh6 cristal_6 cristales Model

v 2.82104 2.525 -4.29484
vt 1.62402 6.80118
v 2.66211 2.525 -4.00563
vt -3.55271e-15 6.80118
v 2.66211 1.143 -4.00563
vt -3.55271e-15 -2.56585e-49
v 2.82104 1.143 -4.29484
vt 1.62402 -1.12611e-49
f 21/16/4 22/17/4 23/18/4 24/19/4 

